# Alias OBJ Model File
# Exported from SketchUp, (c) 2000-2012 Trimble Navigation Limited
# File units = millimeters

mtllib sand_pack.mtl

g Mesh1 Model

usemtl FrontColor
v 51 0 -0
vt -2.00787 0
vn 0 -1 -0
v 0 0 -0
vt 0 0
v 0 0 -51
vt 0 2.00787
v 51 0 -51
vt -2.00787 2.00787
f 1/1/1 2/2/1 3/3/1 4/4/1 

vn 0 0 1
vt 2.00787 0
v 51 17 -0
vt 2.00787 0.669291
v 0 17 -0
vt 0 0.669291
f 2/2/2 1/5/2 5/6/2 6/7/2 

vn 1 0 -0
v 51 17 -51
f 1/2/3 4/5/3 7/6/3 5/7/3 

vn 0 0 -1
v 0 17 -51
vt -2.00787 0.669291
f 4/1/4 3/2/4 8/7/4 7/8/4 

vn -1 0 -0
f 3/1/5 2/2/5 6/7/5 8/8/5 

vn 0 1 -0
v 2.0094 17 -1.02019
vt 0.0791102 0.0401648
f 6/2/6 9/9/6 8/3/6

f 9/9/6 6/2/6 5/5/6

v 49.4394 17 -1.02019
vt 1.94643 0.0401648
f 9/9/6 5/5/6 10/10/6

v 49.4394 17 -48.4502
vt 1.94643 1.90749
f 10/10/6 5/5/6 11/11/6

vt 2.00787 2.00787
f 7/12/6 11/11/6 5/5/6

v 2.0094 17 -48.4502
vt 0.0791102 1.90749
f 7/12/6 12/13/6 11/11/6

f 8/3/6 12/13/6 7/12/6

f 12/13/6 8/3/6 9/9/6

v 2.0094 2 -1.02019
vt 0.0401648 0.0787402
v 2.0094 2 -48.4502
vt 1.90749 0.0787402
vt 1.90749 0.669291
vt 0.0401648 0.669291
f 13/14/3 14/15/3 12/16/3 9/17/3 

v 49.4394 2 -1.02019
v 49.4394 2 -48.4502
f 13/9/6 15/10/6 16/11/6 14/13/6 

vt -1.94643 0.0787402
vt -0.0791102 0.0787402
vt -0.0791102 0.669291
vt -1.94643 0.669291
f 15/18/4 13/19/4 9/20/4 10/21/4 

vt -1.90749 0.0787402
vt -0.0401648 0.0787402
vt -0.0401648 0.669291
vt -1.90749 0.669291
f 16/22/5 15/23/5 10/24/5 11/25/5 

vt 0.0791102 0.0787402
vt 1.94643 0.0787402
vt 1.94643 0.669291
vt 0.0791102 0.669291
f 14/26/2 16/27/2 11/28/2 12/29/2 

